<svg id="visual" viewBox="0 0 592 300" width="592" height="300" xmlns="http://www.w3.org/2000/svg" xmlns:xlink="http://www.w3.org/1999/xlink" version="1.1"><path d="M317 300L328.5 291.7C340 283.3 363 266.7 374.3 250C385.7 233.3 385.3 216.7 382.3 200C379.3 183.3 373.7 166.7 363 150C352.3 133.3 336.7 116.7 344.8 100C353 83.3 385 66.7 402 50C419 33.3 421 16.7 422 8.3L423 0L592 0L592 8.3C592 16.7 592 33.3 592 50C592 66.7 592 83.3 592 100C592 116.7 592 133.3 592 150C592 166.7 592 183.3 592 200C592 216.7 592 233.3 592 250C592 266.7 592 283.3 592 291.7L592 300Z" fill="#f12700"></path><path d="M440 300L437.5 291.7C435 283.3 430 266.7 424.5 250C419 233.3 413 216.7 423.3 200C433.7 183.3 460.3 166.7 456.3 150C452.3 133.3 417.7 116.7 412.3 100C407 83.3 431 66.7 431.2 50C431.3 33.3 407.7 16.7 395.8 8.3L384 0L592 0L592 8.3C592 16.7 592 33.3 592 50C592 66.7 592 83.3 592 100C592 116.7 592 133.3 592 150C592 166.7 592 183.3 592 200C592 216.7 592 233.3 592 250C592 266.7 592 283.3 592 291.7L592 300Z" fill="#d32301"></path><path d="M531 300L534.3 291.7C537.7 283.3 544.3 266.7 543.5 250C542.7 233.3 534.3 216.7 523.3 200C512.3 183.3 498.7 166.7 490.7 150C482.7 133.3 480.3 116.7 477 100C473.7 83.3 469.3 66.7 469.7 50C470 33.3 475 16.7 477.5 8.3L480 0L592 0L592 8.3C592 16.7 592 33.3 592 50C592 66.7 592 83.3 592 100C592 116.7 592 133.3 592 150C592 166.7 592 183.3 592 200C592 216.7 592 233.3 592 250C592 266.7 592 283.3 592 291.7L592 300Z" fill="#b51e01"></path></svg>